<svg width="50" height="50" viewBox="0 0 50 50" fill="none" xmlns="http://www.w3.org/2000/svg">
<g clip-path="url(#clip0_506_3224)">
<path fill-rule="evenodd" clip-rule="evenodd" d="M49.4914 19.9688C49.165 18.3609 48.6711 16.7794 48.0332 15.2684C47.4099 13.7868 46.6308 12.3582 45.7282 11.0236C44.8345 9.70075 43.8084 8.45435 42.6795 7.32553C41.5476 6.19378 40.304 5.16785 38.9781 4.27421C37.6433 3.3688 36.2145 2.59568 34.7328 1.96661C33.2216 1.33165 31.6399 0.834852 30.0347 0.511494C28.3883 0.173438 26.6949 0 25.0015 0C23.3051 0 21.6117 0.173438 19.9653 0.511494C18.3601 0.834852 16.7784 1.33165 15.2672 1.96661C13.7855 2.59568 12.3567 3.3688 11.019 4.27421C9.69601 5.16785 8.4524 6.19378 7.32052 7.32553C6.18863 8.45435 5.16552 9.70075 4.27177 11.0236C3.36626 12.3582 2.59011 13.7868 1.9639 15.2684C1.32592 16.7794 0.83495 18.3609 0.505674 19.9688C0.170518 21.6091 0 23.3053 0 24.9985C0 26.6947 0.170518 28.3909 0.505674 30.037C0.83495 31.6391 1.32592 33.2236 1.9639 34.7316C2.59011 36.2132 3.36626 37.6448 4.27177 38.9823C5.16552 40.3051 6.18863 41.5457 7.32052 42.6774C8.4524 43.8092 9.69601 44.8321 11.019 45.7258C12.3567 46.6312 13.7855 47.4073 15.2672 48.0334C16.7784 48.6713 18.3601 49.1593 19.9653 49.4885C21.6117 49.8295 23.3051 50 25.0015 50C26.6949 50 28.3883 49.8295 30.0347 49.4885C31.6399 49.1593 33.2216 48.6713 34.7328 48.0334C36.2145 47.4073 37.6433 46.6312 38.9781 45.7258C40.304 44.8321 41.5476 43.8092 42.6795 42.6774C43.8084 41.5457 44.8345 40.3051 45.7282 38.9823C46.6308 37.6448 47.4099 36.2132 48.0332 34.7316C48.6711 33.2236 49.165 31.6391 49.4914 30.037C49.8295 28.3909 50 26.6947 50 24.9985C50 23.3053 49.8295 21.6091 49.4914 19.9688ZM46.3456 24.7869C46.0369 24.7193 38.8105 23.1642 31.4753 24.0872C31.3224 23.7227 31.1695 23.3553 31.0137 22.9878C30.5668 21.9413 30.0906 20.9066 29.5937 19.8895C38.0255 16.4472 41.4476 11.4969 41.4888 11.4381C44.4817 15.0773 46.2956 19.7219 46.3456 24.7869ZM39.1015 8.9776C39.0486 9.05991 36.0087 13.6898 27.9473 16.7088C24.2988 10.0035 20.2887 4.67694 19.9682 4.25363C21.5823 3.86266 23.2669 3.65101 25.0015 3.65101C30.4051 3.65101 35.3384 5.66759 39.1015 8.9776ZM19.8859 4.27127C19.8859 4.27421 19.883 4.27421 19.883 4.27421C19.883 4.27421 19.8565 4.28009 19.8183 4.28891C19.8389 4.28303 19.8624 4.28009 19.8859 4.27127ZM15.8905 5.6911C16.1728 6.07326 20.1241 11.4234 23.8196 17.9934C13.5679 20.7184 4.66867 20.6097 4.10419 20.6009C5.49186 13.9867 9.93414 8.50432 15.8905 5.6911ZM3.6485 24.9985C3.6485 24.7722 3.66026 24.5488 3.66614 24.3254C4.04245 24.3342 14.594 24.5723 25.5865 21.2829C26.198 22.4793 26.7831 23.6963 27.3182 24.9103C27.0359 24.9897 26.7566 25.075 26.4773 25.1661C14.9556 28.8906 9.11095 39.2557 9.11095 39.2557C9.11095 39.2557 9.11977 39.2645 9.11977 39.2674C5.71823 35.4842 3.6485 30.4839 3.6485 24.9985ZM25.0015 46.349C19.833 46.349 15.0938 44.5117 11.3982 41.4575C11.6805 41.6838 11.8775 41.8308 11.8775 41.8308C11.8775 41.8308 15.9699 32.9061 28.6323 28.4937C28.6794 28.4761 28.7264 28.4614 28.7764 28.4467C31.781 36.2543 33.0188 42.792 33.3363 44.6587C30.7756 45.7464 27.9561 46.349 25.0015 46.349ZM36.9319 42.7068C36.7143 41.4192 35.5765 35.152 32.7747 27.459C39.669 26.3566 45.64 28.2468 46.081 28.3909C45.1314 34.3377 41.724 39.4703 36.9319 42.7068Z" fill="#EA4C89"/>
</g>
<defs>
<clipPath id="clip0_506_3224">
<rect width="50" height="50" fill="white"/>
</clipPath>
</defs>
</svg>
